<svg xmlns="http://www.w3.org/2000/svg" style="width:0; height:0; visibility:hidden;">
    <symbol id="icon_about-bg" viewBox="0 0 1029 184">
       <g fill="none" fill-rule="evenodd" stroke-linecap="round" stroke-linejoin="round"> <g opacity=".16" stroke="#000"> <path d="M677.5 79.682c0 2.188-3.04 2.555-4.334 3.02-1.294.465-1.98 1.927-1.525 3.25.472 1.368 1.904 2.07 3.198 1.604l.996-.358c.937-.337 1.666-1.275 1.666-2.248V66.123c0-.244.177-.453.418-.493l11-1.833c.305-.05.582.184.582.493v18.66c0 .973-.73 1.91-1.666 2.248l-.996.358c-1.294.465-2.726-.236-3.18-1.558-.472-1.37.214-2.83 1.508-3.296 1.294-.465 4.334-.832 4.334-3.02"/> <path d="M677.5 71.97c0-.733.53-1.36 1.253-1.48l9.582-1.597c.61-.1 1.165.37 1.165.987M426.166 129.366l8.334-1.667-8.334-1.667-1.666-8.334-1.666 8.333-8.334 1.666 8.334 1.666 1.666 8.333z"/> <path stroke-width="2" d="M859.833 140.333L876.5 137l-16.667-3.334L856.5 117l-3.334 16.666L836.5 137l16.666 3.333L856.5 157z"/> <path d="M714.95 149.54c2.02 1.54 4.55 2.46 7.29 2.46 6.63 0 12-5.37 12-12s-5.37-12-12-12c-4.7 0-8.77 2.7-10.74 6.63"/> <path d="M727.53 136.45c.62 1.04.97 2.25.97 3.55 0 3.87-3.13 7-7 7s-7-3.13-7-7 3.13-7 7-7c.12 0 .25 0 .37.02"/> <path d="M57.32 147.28c4.04 3.08 9.1 4.92 14.58 4.92 13.26 0 24-10.74 24-24s-10.74-24-24-24c-9.4 0-17.54 5.4-21.48 13.26" stroke-width="2"/> <path d="M83.96 121.1c1.24 2.08 1.94 4.5 1.94 7.1 0 7.74-6.26 14-14 14s-14-6.26-14-14 6.26-14 14-14c.24 0 .5 0 .74.04" stroke-width="2"/> <path d="M595.614 26L576.5 20.115 582.385 1 601.5 6.886zM218.5 110.5v14M220.5 122.5v-10M222.5 114.5v6M224.5 116.5v2M226.5 115.5v4M228.5 121.5v-8M216.5 115.5v4"/> <path d="M449 72V37c0-6.627 5.373-12 12-12s12 5.373 12 12c0 2.21 1.79 4 4 4h8c6.627 0 12 5.373 12 12v19c0 .552-.448 1-1 1h-46c-.552 0-1-.448-1-1zM449 59h48M453 59v6M457 59v6M465 59v6M469 59v6M473 59v6M481 59v6M485 59v6M493 59v6" stroke-width="2"/> <path d="M143.5 172.7v4M143.5 174.7h17M167.5 168.7s-2 6-8 6c6 0 8 6 8 6v-12zM157.636 182.7h-6.27c-2.127 0-3.866-1.74-3.866-3.865v-.27c0-2.127 1.74-3.866 3.865-3.866h6.27c2.126 0 3.865 1.738 3.865 3.864v.27c0 2.126-1.74 3.865-3.864 3.865zM154.5 179.7v-5M152.5 179.7v-5M156.5 179.7v-5M983 134c0 3.866-3.134 7-7 7s-7-3.134-7-7 3.134-7 7-7 7 3.134 7 7zM903 90.5c0-1.933 1.567-3.5 3.5-3.5s3.5 1.567 3.5 3.5-1.567 3.5-3.5 3.5-3.5-1.567-3.5-3.5zM520.5 108c0-3.59 2.91-6.5 6.5-6.5s6.5 2.91 6.5 6.5-2.91 6.5-6.5 6.5-6.5-2.91-6.5-6.5zM369.5 26c0 7.456-6.044 13.5-13.5 13.5s-13.5-6.044-13.5-13.5 6.044-13.5 13.5-13.5 13.5 6.044 13.5 13.5zM233.5 59.5l8 8M241.5 61.5l8 8M267.5 167.5h24v-24h-24zM1028.5 64l-8 8M1026.5 72l-8 8"/> </g> <g opacity=".45"> <path stroke="#343434" d="M11.667 66.667L20 65l-8.333-1.666L10 55l-1.666 8.334L0 65l8.334 1.667L10 75z"/> <path d="M616 154.3c0 13.255-10.745 24-24 24s-24-10.745-24-24 10.745-24 24-24 24 10.745 24 24zM580 160.292c11 10.5 20 6 26-4" stroke="#343434" stroke-width="2"/> <path d="M697 28.8c0 1.933-1.567 3.5-3.5 3.5s-3.5-1.567-3.5-3.5 1.567-3.5 3.5-3.5 3.5 1.567 3.5 3.5zM791 60.3l8 8M799 62.3l8 8" stroke="#343434"/> <path d="M920 26.3v8M920 30.3h34M968 18.3s-4 12-16 12c12 0 16 12 16 12v-24zM948.27 46.3H935.73c-4.25 0-7.728-3.478-7.728-7.73v-.54c0-4.25 3.478-7.73 7.728-7.73h12.543c4.25 0 7.73 3.48 7.73 7.73v.54c0 4.252-3.48 7.73-7.73 7.73zM942 40.3v-10M938 40.3v-10M946 40.3v-10" stroke="#000" stroke-width="2"/> </g> <g stroke="#8C8C8C" stroke-width="2"> <path d="M141 51.375c0 4.376-6.08 5.108-8.668 6.04-2.59.93-3.96 3.854-3.05 6.498l.032.094c.91 2.644 3.774 4.046 6.362 3.116l1.992-.717c1.874-.674 3.332-2.55 3.332-4.496V24.257c0-.488.354-.906.835-.986l22-3.666c.61-.102 1.165.37 1.165.986v37.32c0 1.947-1.458 3.822-3.332 4.496l-1.992.717c-2.588.93-5.45-.472-6.362-3.116l-.032-.094c-.91-2.644.46-5.568 3.05-6.5 2.588-.93 8.668-1.662 8.668-6.038"/> <path d="M141 35.952c0-1.467 1.06-2.718 2.507-2.96L162.67 29.8c1.22-.204 2.33.735 2.33 1.97"/> </g> <path d="M322 80.948v32.104c0 1.504 1.678 2.44 3.01 1.676l28.006-16.05c1.312-.753 1.312-2.603 0-3.355L325.01 79.27c-1.332-.76-3.01.174-3.01 1.678z" stroke="#1C97D3" stroke-width="2"/> <path d="M632.5 85.8l-8 8M630.5 93.8l-8 8M67.5 44c-3.038 0-5.5-2.463-5.5-5.5s2.462-5.5 5.5-5.5 5.5 2.463 5.5 5.5-2.462 5.5-5.5 5.5z" stroke="#1C97D3"/> </g> 
    </symbol>
    <symbol id="icon_chain" viewBox="0 0 15 15">
      <path d="M5.686 13.994l3.34-3.34c.337-.336.594-.735.764-1.187.14-.375.212-.768.212-1.166 0-.55-.13-1.075-.39-1.558-.165-.306-.357-.566-.586-.795-.228-.228-.488-.42-.795-.586-.24-.13-.545-.04-.677.202-.132.244-.04.546.2.678.222.12.407.255.566.414.158.16.294.344.412.563.18.335.27.7.27 1.084 0 .28-.05.552-.148.814-.12.322-.296.594-.535.833L4.977 13.29c-.875.882-2.413.886-3.293-.005C1.243 12.848 1 12.265 1 11.64c0-.623.243-1.208.686-1.646l2.24-2.24c.195-.196.195-.512 0-.707-.196-.196-.512-.196-.707 0L.98 9.285C.348 9.912 0 10.748 0 11.64c0 .893.348 1.73.978 2.352.626.633 1.462.98 2.354.98.893 0 1.73-.347 2.354-.978M7.012 9.64c-.08 0-.162-.02-.238-.06-.307-.166-.567-.357-.795-.586-.23-.23-.422-.49-.587-.795-.448-.84-.513-1.83-.18-2.725.172-.453.43-.852.766-1.188L9.32.947c1.25-1.262 3.454-1.264 4.707.002.63.626.975 1.462.975 2.35 0 .89-.346 1.725-.976 2.354l-2.24 2.24c-.195.196-.512.196-.707 0-.196-.195-.196-.51 0-.707l2.24-2.24c.44-.44.682-1.025.682-1.646 0-.62-.242-1.205-.683-1.646-.88-.887-2.418-.885-3.293-.002l-3.34 3.342c-.24.24-.415.51-.537.833-.233.623-.188 1.315.123 1.897.118.22.254.404.413.563.16.16.344.294.564.414.243.133.333.436.202.68-.09.166-.263.26-.44.26" fill="#000" fill-rule="evenodd" opacity=".5"/>
    </symbol>
    <symbol id="icon_chat-cloud" viewBox="0 0 56 56">
       <path d="M46 31c0 .553-.448 1-1 1H11c-.552 0-1-.447-1-1 0-.553.448-1 1-1h34c.552 0 1 .447 1 1M10 19c0-.552.448-1 1-1h24c.552 0 1 .448 1 1s-.448 1-1 1H11c-.552 0-1-.448-1-1m36 6c0 .553-.448 1-1 1H11c-.552 0-1-.447-1-1 0-.553.448-1 1-1h34c.552 0 1 .447 1 1M28 48c-3.7 0-7.282-.68-10.65-2.02-.35-.14-.754-.067-1.038.186L8.78 52.95 7.257 39.125c-.022-.194-.1-.38-.225-.53C3.74 34.63 2 29.928 2 25 2 12.318 13.664 2 28 2s26 10.318 26 23c0 12.683-11.664 23-26 23m0-48C12.56 0 0 11.215 0 25c0 5.302 1.832 10.356 5.3 14.638l1.706 15.47c.04.374.287.693.638.827.116.044.236.065.356.065.243 0 .482-.09.67-.257l8.524-7.68C20.627 49.35 24.26 50 28 50c15.44 0 28-11.215 28-25S43.44 0 28 0" fill="#2898D1" fill-rule="evenodd"/> 
    </symbol>
    <symbol id="icon_close" viewBox="0 0 8 8">
      <g stroke="#7F7F7F" stroke-width="2" fill="none" fill-rule="evenodd" stroke-linecap="round" stroke-linejoin="round"><path d="M1 1l6 6M1 7l6-6"/></g>
    </symbol>
    <symbol id="icon_facebook" viewBox="0 0 33 33">
      <path d="M18.114 9c1.04 0 1.934.078 2.195.113v2.543h-1.507c-1.18 0-1.41.562-1.41 1.386v1.816h2.817l-.367 2.844h-2.45V25h-2.937v-7.298H12v-2.844h2.456V12.76c0-2.434 1.486-3.76 3.658-3.76M16.5 32C7.94 32 1 25.06 1 16.5 1 7.94 7.94 1 16.5 1 25.06 1 32 7.94 32 16.5 32 25.06 25.06 32 16.5 32m0-32C7.387 0 0 7.388 0 16.5S7.387 33 16.5 33 33 25.612 33 16.5 25.613 0 16.5 0" fill="#41474C" fill-rule="evenodd"/>
    </symbol>
    <symbol id="icon_heart" viewBox="0 0 24 22">
       <path d="M17 0c-1.903 0-3.695.77-5 2.103C10.695.77 8.903 0 7 0 3.14 0 0 3.14 0 7c0 .295.023.584.054.818C.627 15.956 9.434 22 12 22c2.565 0 11.373-6.044 11.94-14.13.037-.286.06-.575.06-.87 0-3.86-3.14-7-7-7" fill="#1096D6" fill-rule="evenodd"/> 
    </symbol>
    <symbol id="icon_logo" viewBox="0 0 185 23">
      <g fill="none" fill-rule="evenodd"><path d="M104.833 22.315c-5.606 0-9.53-3.8-9.53-10.778C95.303 4.562 99.286.7 104.89.7c5.608 0 9.53 3.803 9.53 10.78 0 6.973-3.983 10.835-9.587 10.835m0-16.556c2.302 0 3.658 2.006 3.658 5.777 0 3.772-1.297 5.718-3.6 5.718-2.3 0-3.656-2.006-3.656-5.776 0-3.774 1.298-5.72 3.6-5.72zm24.105 9.43h-2.86v6.795h-5.636V1.03h8.88c4.84 0 8.054 1.885 8.054 6.946 0 5.328-3.48 7.214-8.438 7.214zm.236-9.432h-3.097v4.7h3.01c1.858 0 2.596-.807 2.596-2.393 0-1.377-.678-2.307-2.51-2.307zm14.202 16.227V1.03h15.815v4.88h-10.15v2.784h6.11v4.82h-6.11v3.592H159.4v4.88h-16.022zm36.773 0l-4.927-6.915c-.915-1.287-2.686-3.982-3.216-4.91.148.928.177 3.712.177 5.42v6.405h-5.488V1.03h5.046l4.544 6.196c.942 1.288 2.773 4.07 3.214 4.94-.147-.928-.176-3.712-.176-5.42V1.03h5.488v20.955h-4.663z" fill="#2898D1"/><path d="M34.98 21.985v-5c0-2.066.03-3.95.118-5.567-.62 1.556-1.682 3.98-2.39 5.478l-2.713 5.81-2.716-5.81c-.707-1.497-1.77-3.922-2.39-5.478.088 1.617.12 3.5.12 5.567v5h-5.372V1.03h5.25l2.54 5.597c1.238 2.695 2.272 5.15 2.596 6.318.354-1.198 1.298-3.473 2.597-6.318L35.16 1.03h5.193v20.955h-5.37zm21.826.33c-5.194 0-9-2.634-9-9.28V1.03h5.842v12.005c0 2.574 1.003 4.16 3.247 4.16 2.24 0 3.186-1.586 3.186-4.16V1.03h5.842v12.005c0 6.646-3.925 9.28-9.116 9.28zm23.987 0c-3.335 0-6.55-1.107-8.705-2.544l2.773-4.55c1.507 1.05 4.133 2.095 6.05 2.095 2.035 0 2.686-.358 2.686-1.347 0-.78-.738-1.257-3.51-1.916-4.99-1.167-7.378-2.544-7.378-6.735C72.708 3.365 75.865.7 80.85.7c3.51 0 6.05.87 8.233 2.425l-2.773 4.55C84.48 6.42 82.65 5.7 80.557 5.7c-1.712 0-2.125.54-2.125 1.287 0 .78.737 1.138 3.393 1.767 5.192 1.258 7.494 2.873 7.494 6.796 0 4.79-3.57 6.765-8.527 6.765zM0 22.135V1.105h2.924v21.03H0zm5.475 0V1.105h.73v21.03h-.73zM9.04 9.082c0-.6.48-1.085 1.07-1.085.592 0 1.07.486 1.07 1.085 0 .6-.478 1.086-1.07 1.086-.59 0-1.07-.486-1.07-1.086zm0 5.076c0-.6.48-1.084 1.07-1.084.592 0 1.07.484 1.07 1.084 0 .6-.478 1.085-1.07 1.085-.59 0-1.07-.485-1.07-1.085z" fill="#41474C"/></g>
    </symbol>
    <symbol id="icon_next" viewBox="0 0 20 20">
       <path d="M19 0h-2c-.553 0-1 .448-1 1v7.834L1.515.144C1.205-.045.82-.05.507.13.193.307 0 .64 0 1v18c0 .36.193.692.507.87.153.087.323.13.493.13.178 0 .356-.048.515-.143L16 11.167V19c0 .553.447 1 1 1h2c.553 0 1-.447 1-1V1c0-.552-.447-1-1-1" fill="#1096D6" fill-rule="evenodd"/> 
    </symbol>
    <symbol id="icon_note" viewBox="0 0 13 15">
      <path d="M11.942 11.972c-.148.36-.532.686-1.026.873-.866.332-1.68.094-1.87-.326-.065-.147-.06-.312.013-.49.148-.36.53-.687 1.026-.874.283-.11.56-.156.813-.156.517 0 .927.2 1.054.48v.002c.066.145.062.31-.012.49zm-6.95-8.037V1.942l7.01-.875V3.06l-7.01.875zm-2.08 9.91c-.866.332-1.677.093-1.865-.326-.066-.147-.06-.312.013-.492.15-.36.53-.686 1.023-.872.282-.11.56-.156.81-.156.517 0 .926.2 1.053.48v.002c.033.072.048.15.046.23v.004c-.003.082-.022.167-.06.257-.147.36-.53.686-1.02.872zM13 .5c0-.143-.063-.28-.17-.375-.108-.094-.252-.14-.393-.12l-8.01 1c-.25.03-.438.243-.438.495v9.73c-.624-.292-1.455-.318-2.265-.01-.756.288-1.336.808-1.59 1.426-.18.432-.18.888-.002 1.284.308.684 1.074 1.072 1.956 1.072.38 0 .78-.072 1.176-.22.756-.29 1.336-.81 1.592-1.428.073-.18.11-.362.122-.543.002-.02.012-.038.012-.06V4.944l7.01-.876v6.163c-.625-.293-1.46-.32-2.272-.01-.758.288-1.34.81-1.595 1.428-.178.432-.178.887 0 1.282.31.685 1.076 1.072 1.96 1.072.38 0 .78-.07 1.176-.22.76-.29 1.34-.81 1.596-1.43.086-.206.128-.42.13-.628.002-.006.005-.012.005-.018V.5z" fill="#000" fill-rule="evenodd" opacity=".36"/>
    </symbol>
    <symbol id="icon_pause" viewBox="0 0 65 65">
       <path d="M43 20.5v24c0 .827-.673 1.5-1.5 1.5h-5c-.827 0-1.5-.673-1.5-1.5v-24c0-.827.673-1.5 1.5-1.5h5c.827 0 1.5.673 1.5 1.5m-13 0v24c0 .827-.673 1.5-1.5 1.5h-5c-.827 0-1.5-.673-1.5-1.5v-24c0-.827.673-1.5 1.5-1.5h5c.827 0 1.5.673 1.5 1.5M32.5 64C15.13 64 1 49.87 1 32.5 1 15.13 15.13 1 32.5 1 49.87 1 64 15.13 64 32.5 64 49.87 49.87 64 32.5 64m0-64C14.58 0 0 14.58 0 32.5S14.58 65 32.5 65 65 50.42 65 32.5 50.42 0 32.5 0" fill="#1096D6" fill-rule="evenodd"/> 
    </symbol>
    <symbol id="icon_people" viewBox="0 0 56 44">
       <path d="M42.684 33.948c-1.292-.43-2.513-.773-3.59-1.075C35.13 31.76 32 30.88 32 27c0-3.577 1.016-4.686 1.997-5.757C34.982 20.168 36 19.055 36 14c0-7.514-2.99-12-8-12s-8 4.486-8 12c0 5.055 1.02 6.168 2.004 7.243C22.984 22.313 24 23.423 24 27c0 3.88-3.13 4.76-7.093 5.873-1.077.302-2.298.644-3.59 1.075-6.383 2.128-6.365 3.834-6.324 7.956V42h42.014v-.096c.042-4.122.06-5.828-6.323-7.956m8.324 7.977C51.004 42.27 51 42.628 51 43c0 .552-.447 1-1 1H6c-.552 0-1-.448-1-1 0-.372-.003-.73-.007-1.075-.048-4.788.272-7.4 7.69-9.873 1.34-.447 2.585-.796 3.684-1.105C20.553 29.77 22 29.25 22 27c0-2.8-.65-3.51-1.47-4.406C19.343 21.3 18 19.834 18 14 18 1.01 25.655 0 28 0c2.346 0 10 1.01 10 14 0 5.833-1.343 7.3-2.528 8.594C34.65 23.49 34 24.2 34 27c0 2.25 1.448 2.77 5.634 3.947 1.1.31 2.344.658 3.683 1.105 7.42 2.472 7.74 5.085 7.69 9.873m.31-13.873c-3.076-1.026-3.366-1.493-3.366-2.472 0-.815.308-1.296.774-2.025.707-1.106 1.586-2.484 1.586-5.385 0-5.192-2.3-8.17-6.31-8.17-1.45 0-2.69.39-3.69 1.157-.437.337-.52.965-.182 1.403.336.437.964.52 1.402.182.65-.5 1.458-.742 2.47-.742 2.86 0 4.31 2.075 4.31 6.17 0 2.317-.647 3.33-1.272 4.308-.535.837-1.087 1.702-1.087 3.102 0 2.59 1.963 3.444 4.734 4.368 2.027.676 3.04 1.912 3.267 4.052h-1.16c-.552 0-1 .447-1 1 0 .552.448 1 1 1H55c.553 0 1-.448 1-1 0-3.625-1.532-5.9-4.683-6.948M4.21 35c0 .552-.447 1-1 1H1c-.552 0-1-.448-1-1 0-3.625 1.533-5.9 4.684-6.948C7.76 27.026 8.05 26.56 8.05 25.58c0-.815-.307-1.296-.773-2.025C6.57 22.45 5.69 21.07 5.69 18.17 5.69 12.978 7.99 10 12 10c1.45 0 2.69.39 3.69 1.157.438.337.52.965.183 1.403-.337.436-.964.52-1.402.182-.65-.5-1.457-.742-2.47-.742-2.86 0-4.31 2.075-4.31 6.17 0 2.317.647 3.33 1.273 4.308.534.837 1.087 1.702 1.087 3.102 0 2.59-1.962 3.444-4.733 4.368C3.29 30.624 2.277 31.86 2.05 34h1.16c.553 0 1 .447 1 1" fill="#2898D1" fill-rule="evenodd"/> 
    </symbol>
    <symbol id="icon_play" viewBox="0 0 65 65">
       <path d="M45.77 32.078c.144.092.23.25.23.422 0 .17-.086.33-.23.422l-22 14c-.083.052-.176.078-.27.078-.083 0-.165-.02-.24-.062-.16-.088-.26-.256-.26-.438v-28c0-.183.1-.35.26-.44.16-.086.355-.08.51.018l22 14zM32.5 64C15.13 64 1 49.87 1 32.5 1 15.13 15.13 1 32.5 1 49.87 1 64 15.13 64 32.5 64 49.87 49.87 64 32.5 64zm0-64C14.58 0 0 14.58 0 32.5S14.58 65 32.5 65 65 50.42 65 32.5 50.42 0 32.5 0z" fill="#1096D6" fill-rule="evenodd"/> 
    </symbol>
    <symbol id="icon_search" viewBox="0 0 15 15">
      <path d="M1 6c0-2.757 2.243-5 5-5s5 2.243 5 5-2.243 5-5 5-5-2.243-5-5m13.854 8.146L10.578 9.87C11.463 8.824 12 7.475 12 6c0-3.31-2.69-6-6-6S0 2.69 0 6s2.69 6 6 6c1.475 0 2.825-.537 3.87-1.423l4.276 4.277c.098.097.226.146.354.146.128 0 .256-.05.354-.146.195-.196.195-.512 0-.708" fill="#999"/>
    </symbol>
    <symbol id="icon_settings" viewBox="0 0 17 13">
      <g fill="#FFF" fill-rule="evenodd"><path d="M0 1h17v1H0z"/><circle cx="2.5" cy="1.5" r="1.5"/><path d="M0 6h17v1H0z"/><circle cx="12.5" cy="6.5" r="1.5"/><path d="M0 11h17v1H0z"/><circle cx="7.5" cy="11.5" r="1.5"/></g>
    </symbol>
    <symbol id="icon_sheet" viewBox="0 0 13 15">
      <path d="M10 11.5c0 .276-.224.5-.5.5h-6c-.276 0-.5-.224-.5-.5s.224-.5.5-.5h6c.276 0 .5.224.5.5zm0-2c0 .276-.224.5-.5.5h-6c-.276 0-.5-.224-.5-.5s.224-.5.5-.5h6c.276 0 .5.224.5.5zm-7-6c0-.276.224-.5.5-.5h2c.276 0 .5.224.5.5s-.224.5-.5.5h-2c-.276 0-.5-.224-.5-.5zm0 2c0-.276.224-.5.5-.5h2c.276 0 .5.224.5.5s-.224.5-.5.5h-2c-.276 0-.5-.224-.5-.5zm7 2c0 .276-.224.5-.5.5h-6c-.276 0-.5-.224-.5-.5s.224-.5.5-.5h6c.276 0 .5.224.5.5zM1 14V1h7v3.5c0 .276.224.5.5.5H12v9H1zM9 1.707L11.293 4H9V1.707zm3.96 2.6c-.024-.06-.062-.116-.107-.16l-4-4c-.044-.045-.1-.083-.16-.108C8.632.013 8.565 0 8.5 0h-8C.224 0 0 .224 0 .5v14c0 .276.224.5.5.5h12c.276 0 .5-.224.5-.5v-10c0-.066-.014-.132-.04-.192z" fill="#000" fill-rule="evenodd" opacity=".36"/>
    </symbol>
    <symbol id="icon_speaker" viewBox="0 0 24 19">
       <path d="M14.6 4.45c-.546.084-.922.595-.838 1.14.153 1.01.238 2.36.238 3.8s-.085 2.79-.238 3.8c-.084.546.29 1.055.838 1.138.05.008.102.012.15.012.488 0 .913-.354.99-.85.17-1.12.26-2.54.26-4.1 0-1.56-.09-2.98-.26-4.1-.084-.547-.596-.922-1.14-.84m2.98-2.142c-.516.2-.77.78-.572 1.294.65 1.673.992 3.675.992 5.788 0 2.113-.342 4.115-.992 5.79-.2.514.057 1.093.57 1.293.12.046.243.067.363.067.4 0 .78-.242.933-.638C19.61 14 20 11.748 20 9.39c0-2.358-.39-4.61-1.127-6.512-.2-.514-.783-.77-1.294-.57M22.1.565C21.863.068 21.265-.14 20.767.1c-.497.24-.706.837-.466 1.334C21.412 3.74 22 6.49 22 9.39c0 2.9-.588 5.65-1.7 7.955-.24.497-.032 1.095.466 1.335.14.067.288.1.434.1.372 0 .728-.208.9-.566C23.344 15.64 24 12.59 24 9.39s-.657-6.25-1.9-8.825M11 2.39v14c0 .404-.243.77-.617.924-.124.052-.254.076-.383.076-.26 0-.515-.102-.707-.293L5.586 13.39H2c-1.102 0-2-.897-2-2v-4c0-1.103.898-2 2-2h3.586l3.707-3.707c.287-.287.716-.372 1.09-.217.374.155.617.52.617.924" fill="#1096D6" fill-rule="evenodd"/> 
    </symbol>
    <symbol id="icon_star" viewBox="0 0 11 11">
      <path d="M8.04 6.546c-.164.17-.24.41-.202.642l.478 2.933-2.453-1.357c-.227-.126-.498-.127-.725 0L2.684 10.12l.478-2.932c.038-.233-.038-.473-.203-.642L.92 4.456l2.783-.427c.248-.04.458-.196.564-.423L5.5.98l1.23 2.627c.107.227.318.384.565.422l2.783.425-2.037 2.09zm2.93-2.39c-.065-.2-.236-.343-.443-.375l-3.132-.484L6.005.33V.327c-.187-.395-.823-.396-1.01 0l-1.4 2.976-3.122.477c-.207.033-.377.177-.444.375-.067.2-.018.416.128.567l2.28 2.35-.536 3.29c-.034.212.054.42.23.544.097.07.208.103.32.102.092 0 .185-.022.27-.07l2.785-1.534 2.77 1.534c.188.104.414.092.59-.032.177-.123.265-.332.23-.545l-.53-3.303 2.275-2.335c.146-.15.195-.368.13-.567z" fill="#F0C200" fill-rule="evenodd"/>
    </symbol>
    <symbol id="icon_star_filled" viewBox="0 0 11 11">
      <path d="M10.97 4.156c-.066-.2-.236-.343-.444-.374l-3.13-.486L6.005.33V.327c-.188-.395-.825-.396-1.01 0L3.594 3.305l-3.12.478c-.208.03-.378.175-.445.374-.068.198-.018.415.13.566l2.278 2.35-.536 3.29c-.035.212.054.42.23.544.097.07.208.103.32.102.092 0 .185-.023.27-.07l2.785-1.534 2.77 1.534c.188.104.414.092.59-.032.177-.123.265-.332.23-.545l-.532-3.303 2.277-2.335c.146-.15.195-.368.13-.566" fill="#F0C200" fill-rule="evenodd"/>
    </symbol>
    <symbol id="icon_twitter" viewBox="0 0 33 33">
      <path d="M22.616 11.94c.664-.08 1.297-.26 1.884-.528-.438.675-.995 1.266-1.636 1.742.006.142.008.29.008.435 0 4.448-3.3 9.577-9.34 9.577-1.853 0-3.58-.558-5.032-1.512.257.03.52.047.784.047 1.537 0 2.953-.54 4.076-1.443-1.436-.026-2.648-1-3.066-2.337.2.04.407.06.618.06.3 0 .59-.04.865-.118-1.503-.31-2.634-1.67-2.634-3.3v-.042c.443.25.95.403 1.487.42-.88-.605-1.46-1.635-1.46-2.802 0-.615.16-1.193.444-1.692 1.62 2.038 4.04 3.377 6.767 3.517-.056-.247-.084-.503-.084-.766 0-1.86 1.47-3.367 3.282-3.367.944 0 1.797.41 2.395 1.06.75-.148 1.45-.43 2.086-.813-.246.786-.767 1.445-1.444 1.86M16.5 32C7.94 32 1 25.06 1 16.5 1 7.94 7.94 1 16.5 1 25.06 1 32 7.94 32 16.5 32 25.06 25.06 32 16.5 32m0-32C7.387 0 0 7.387 0 16.5 0 25.612 7.387 33 16.5 33S33 25.612 33 16.5C33 7.387 25.613 0 16.5 0" fill="#41474C" fill-rule="evenodd"/>
    </symbol></svg>