<svg width="1029" height="184" viewBox="0 0 1029 184" xmlns="http://www.w3.org/2000/svg">
  <g fill="none" fill-rule="evenodd" stroke-linecap="round" stroke-linejoin="round">
    <g opacity=".16" stroke="#000">
      <path d="M677.5 79.682c0 2.188-3.04 2.555-4.334 3.02-1.294.465-1.98 1.927-1.525 3.25.472 1.368 1.904 2.07 3.198 1.604l.996-.358c.937-.337 1.666-1.275 1.666-2.248V66.123c0-.244.177-.453.418-.493l11-1.833c.305-.05.582.184.582.493v18.66c0 .973-.73 1.91-1.666 2.248l-.996.358c-1.294.465-2.726-.236-3.18-1.558-.472-1.37.214-2.83 1.508-3.296 1.294-.465 4.334-.832 4.334-3.02"/>
      <path d="M677.5 71.97c0-.733.53-1.36 1.253-1.48l9.582-1.597c.61-.1 1.165.37 1.165.987M426.166 129.366l8.334-1.667-8.334-1.667-1.666-8.334-1.666 8.333-8.334 1.666 8.334 1.666 1.666 8.333z"/>
      <path stroke-width="2" d="M859.833 140.333L876.5 137l-16.667-3.334L856.5 117l-3.334 16.666L836.5 137l16.666 3.333L856.5 157z"/>
      <path d="M714.95 149.54c2.02 1.54 4.55 2.46 7.29 2.46 6.63 0 12-5.37 12-12s-5.37-12-12-12c-4.7 0-8.77 2.7-10.74 6.63"/>
      <path d="M727.53 136.45c.62 1.04.97 2.25.97 3.55 0 3.87-3.13 7-7 7s-7-3.13-7-7 3.13-7 7-7c.12 0 .25 0 .37.02"/>
      <path d="M57.32 147.28c4.04 3.08 9.1 4.92 14.58 4.92 13.26 0 24-10.74 24-24s-10.74-24-24-24c-9.4 0-17.54 5.4-21.48 13.26" stroke-width="2"/>
      <path d="M83.96 121.1c1.24 2.08 1.94 4.5 1.94 7.1 0 7.74-6.26 14-14 14s-14-6.26-14-14 6.26-14 14-14c.24 0 .5 0 .74.04" stroke-width="2"/>
      <path d="M595.614 26L576.5 20.115 582.385 1 601.5 6.886zM218.5 110.5v14M220.5 122.5v-10M222.5 114.5v6M224.5 116.5v2M226.5 115.5v4M228.5 121.5v-8M216.5 115.5v4"/>
      <path d="M449 72V37c0-6.627 5.373-12 12-12s12 5.373 12 12c0 2.21 1.79 4 4 4h8c6.627 0 12 5.373 12 12v19c0 .552-.448 1-1 1h-46c-.552 0-1-.448-1-1zM449 59h48M453 59v6M457 59v6M465 59v6M469 59v6M473 59v6M481 59v6M485 59v6M493 59v6" stroke-width="2"/>
      <path d="M143.5 172.7v4M143.5 174.7h17M167.5 168.7s-2 6-8 6c6 0 8 6 8 6v-12zM157.636 182.7h-6.27c-2.127 0-3.866-1.74-3.866-3.865v-.27c0-2.127 1.74-3.866 3.865-3.866h6.27c2.126 0 3.865 1.738 3.865 3.864v.27c0 2.126-1.74 3.865-3.864 3.865zM154.5 179.7v-5M152.5 179.7v-5M156.5 179.7v-5M983 134c0 3.866-3.134 7-7 7s-7-3.134-7-7 3.134-7 7-7 7 3.134 7 7zM903 90.5c0-1.933 1.567-3.5 3.5-3.5s3.5 1.567 3.5 3.5-1.567 3.5-3.5 3.5-3.5-1.567-3.5-3.5zM520.5 108c0-3.59 2.91-6.5 6.5-6.5s6.5 2.91 6.5 6.5-2.91 6.5-6.5 6.5-6.5-2.91-6.5-6.5zM369.5 26c0 7.456-6.044 13.5-13.5 13.5s-13.5-6.044-13.5-13.5 6.044-13.5 13.5-13.5 13.5 6.044 13.5 13.5zM233.5 59.5l8 8M241.5 61.5l8 8M267.5 167.5h24v-24h-24zM1028.5 64l-8 8M1026.5 72l-8 8"/>
    </g>
    <g opacity=".45">
      <path stroke="#343434" d="M11.667 66.667L20 65l-8.333-1.666L10 55l-1.666 8.334L0 65l8.334 1.667L10 75z"/>
      <path d="M616 154.3c0 13.255-10.745 24-24 24s-24-10.745-24-24 10.745-24 24-24 24 10.745 24 24zM580 160.292c11 10.5 20 6 26-4" stroke="#343434" stroke-width="2"/>
      <path d="M697 28.8c0 1.933-1.567 3.5-3.5 3.5s-3.5-1.567-3.5-3.5 1.567-3.5 3.5-3.5 3.5 1.567 3.5 3.5zM791 60.3l8 8M799 62.3l8 8" stroke="#343434"/>
      <path d="M920 26.3v8M920 30.3h34M968 18.3s-4 12-16 12c12 0 16 12 16 12v-24zM948.27 46.3H935.73c-4.25 0-7.728-3.478-7.728-7.73v-.54c0-4.25 3.478-7.73 7.728-7.73h12.543c4.25 0 7.73 3.48 7.73 7.73v.54c0 4.252-3.48 7.73-7.73 7.73zM942 40.3v-10M938 40.3v-10M946 40.3v-10" stroke="#000" stroke-width="2"/>
    </g>
    <g stroke="#8C8C8C" stroke-width="2">
      <path d="M141 51.375c0 4.376-6.08 5.108-8.668 6.04-2.59.93-3.96 3.854-3.05 6.498l.032.094c.91 2.644 3.774 4.046 6.362 3.116l1.992-.717c1.874-.674 3.332-2.55 3.332-4.496V24.257c0-.488.354-.906.835-.986l22-3.666c.61-.102 1.165.37 1.165.986v37.32c0 1.947-1.458 3.822-3.332 4.496l-1.992.717c-2.588.93-5.45-.472-6.362-3.116l-.032-.094c-.91-2.644.46-5.568 3.05-6.5 2.588-.93 8.668-1.662 8.668-6.038"/>
      <path d="M141 35.952c0-1.467 1.06-2.718 2.507-2.96L162.67 29.8c1.22-.204 2.33.735 2.33 1.97"/>
    </g>
    <path d="M322 80.948v32.104c0 1.504 1.678 2.44 3.01 1.676l28.006-16.05c1.312-.753 1.312-2.603 0-3.355L325.01 79.27c-1.332-.76-3.01.174-3.01 1.678z" stroke="#1C97D3" stroke-width="2"/>
    <path d="M632.5 85.8l-8 8M630.5 93.8l-8 8M67.5 44c-3.038 0-5.5-2.463-5.5-5.5s2.462-5.5 5.5-5.5 5.5 2.463 5.5 5.5-2.462 5.5-5.5 5.5z" stroke="#1C97D3"/>
  </g>
</svg>
