<svg width="15" height="15" viewBox="0 0 15 15" xmlns="http://www.w3.org/2000/svg"><path d="M5.686 13.994l3.34-3.34c.337-.336.594-.735.764-1.187.14-.375.212-.768.212-1.166 0-.55-.13-1.075-.39-1.558-.165-.306-.357-.566-.586-.795-.228-.228-.488-.42-.795-.586-.24-.13-.545-.04-.677.202-.132.244-.04.546.2.678.222.12.407.255.566.414.158.16.294.344.412.563.18.335.27.7.27 1.084 0 .28-.05.552-.148.814-.12.322-.296.594-.535.833L4.977 13.29c-.875.882-2.413.886-3.293-.005C1.243 12.848 1 12.265 1 11.64c0-.623.243-1.208.686-1.646l2.24-2.24c.195-.196.195-.512 0-.707-.196-.196-.512-.196-.707 0L.98 9.285C.348 9.912 0 10.748 0 11.64c0 .893.348 1.73.978 2.352.626.633 1.462.98 2.354.98.893 0 1.73-.347 2.354-.978M7.012 9.64c-.08 0-.162-.02-.238-.06-.307-.166-.567-.357-.795-.586-.23-.23-.422-.49-.587-.795-.448-.84-.513-1.83-.18-2.725.172-.453.43-.852.766-1.188L9.32.947c1.25-1.262 3.454-1.264 4.707.002.63.626.975 1.462.975 2.35 0 .89-.346 1.725-.976 2.354l-2.24 2.24c-.195.196-.512.196-.707 0-.196-.195-.196-.51 0-.707l2.24-2.24c.44-.44.682-1.025.682-1.646 0-.62-.242-1.205-.683-1.646-.88-.887-2.418-.885-3.293-.002l-3.34 3.342c-.24.24-.415.51-.537.833-.233.623-.188 1.315.123 1.897.118.22.254.404.413.563.16.16.344.294.564.414.243.133.333.436.202.68-.09.166-.263.26-.44.26" fill="#000" fill-rule="evenodd" opacity=".5"/></svg>