<svg width="56" height="56" viewBox="0 0 56 56" xmlns="http://www.w3.org/2000/svg">
  <path d="M46 31c0 .553-.448 1-1 1H11c-.552 0-1-.447-1-1 0-.553.448-1 1-1h34c.552 0 1 .447 1 1M10 19c0-.552.448-1 1-1h24c.552 0 1 .448 1 1s-.448 1-1 1H11c-.552 0-1-.448-1-1m36 6c0 .553-.448 1-1 1H11c-.552 0-1-.447-1-1 0-.553.448-1 1-1h34c.552 0 1 .447 1 1M28 48c-3.7 0-7.282-.68-10.65-2.02-.35-.14-.754-.067-1.038.186L8.78 52.95 7.257 39.125c-.022-.194-.1-.38-.225-.53C3.74 34.63 2 29.928 2 25 2 12.318 13.664 2 28 2s26 10.318 26 23c0 12.683-11.664 23-26 23m0-48C12.56 0 0 11.215 0 25c0 5.302 1.832 10.356 5.3 14.638l1.706 15.47c.04.374.287.693.638.827.116.044.236.065.356.065.243 0 .482-.09.67-.257l8.524-7.68C20.627 49.35 24.26 50 28 50c15.44 0 28-11.215 28-25S43.44 0 28 0" fill="#2898D1" fill-rule="evenodd"/>
</svg>
