<svg width="185" height="23" viewBox="0 0 185 23" xmlns="http://www.w3.org/2000/svg"><g fill="none" fill-rule="evenodd"><path d="M104.833 22.315c-5.606 0-9.53-3.8-9.53-10.778C95.303 4.562 99.286.7 104.89.7c5.608 0 9.53 3.803 9.53 10.78 0 6.973-3.983 10.835-9.587 10.835m0-16.556c2.302 0 3.658 2.006 3.658 5.777 0 3.772-1.297 5.718-3.6 5.718-2.3 0-3.656-2.006-3.656-5.776 0-3.774 1.298-5.72 3.6-5.72zm24.105 9.43h-2.86v6.795h-5.636V1.03h8.88c4.84 0 8.054 1.885 8.054 6.946 0 5.328-3.48 7.214-8.438 7.214zm.236-9.432h-3.097v4.7h3.01c1.858 0 2.596-.807 2.596-2.393 0-1.377-.678-2.307-2.51-2.307zm14.202 16.227V1.03h15.815v4.88h-10.15v2.784h6.11v4.82h-6.11v3.592H159.4v4.88h-16.022zm36.773 0l-4.927-6.915c-.915-1.287-2.686-3.982-3.216-4.91.148.928.177 3.712.177 5.42v6.405h-5.488V1.03h5.046l4.544 6.196c.942 1.288 2.773 4.07 3.214 4.94-.147-.928-.176-3.712-.176-5.42V1.03h5.488v20.955h-4.663z" fill="#2898D1"/><path d="M34.98 21.985v-5c0-2.066.03-3.95.118-5.567-.62 1.556-1.682 3.98-2.39 5.478l-2.713 5.81-2.716-5.81c-.707-1.497-1.77-3.922-2.39-5.478.088 1.617.12 3.5.12 5.567v5h-5.372V1.03h5.25l2.54 5.597c1.238 2.695 2.272 5.15 2.596 6.318.354-1.198 1.298-3.473 2.597-6.318L35.16 1.03h5.193v20.955h-5.37zm21.826.33c-5.194 0-9-2.634-9-9.28V1.03h5.842v12.005c0 2.574 1.003 4.16 3.247 4.16 2.24 0 3.186-1.586 3.186-4.16V1.03h5.842v12.005c0 6.646-3.925 9.28-9.116 9.28zm23.987 0c-3.335 0-6.55-1.107-8.705-2.544l2.773-4.55c1.507 1.05 4.133 2.095 6.05 2.095 2.035 0 2.686-.358 2.686-1.347 0-.78-.738-1.257-3.51-1.916-4.99-1.167-7.378-2.544-7.378-6.735C72.708 3.365 75.865.7 80.85.7c3.51 0 6.05.87 8.233 2.425l-2.773 4.55C84.48 6.42 82.65 5.7 80.557 5.7c-1.712 0-2.125.54-2.125 1.287 0 .78.737 1.138 3.393 1.767 5.192 1.258 7.494 2.873 7.494 6.796 0 4.79-3.57 6.765-8.527 6.765zM0 22.135V1.105h2.924v21.03H0zm5.475 0V1.105h.73v21.03h-.73zM9.04 9.082c0-.6.48-1.085 1.07-1.085.592 0 1.07.486 1.07 1.085 0 .6-.478 1.086-1.07 1.086-.59 0-1.07-.486-1.07-1.086zm0 5.076c0-.6.48-1.084 1.07-1.084.592 0 1.07.484 1.07 1.084 0 .6-.478 1.085-1.07 1.085-.59 0-1.07-.485-1.07-1.085z" fill="#41474C"/></g></svg>