<svg width="65" height="65" viewBox="0 0 65 65" xmlns="http://www.w3.org/2000/svg">
  <path d="M43 20.5v24c0 .827-.673 1.5-1.5 1.5h-5c-.827 0-1.5-.673-1.5-1.5v-24c0-.827.673-1.5 1.5-1.5h5c.827 0 1.5.673 1.5 1.5m-13 0v24c0 .827-.673 1.5-1.5 1.5h-5c-.827 0-1.5-.673-1.5-1.5v-24c0-.827.673-1.5 1.5-1.5h5c.827 0 1.5.673 1.5 1.5M32.5 64C15.13 64 1 49.87 1 32.5 1 15.13 15.13 1 32.5 1 49.87 1 64 15.13 64 32.5 64 49.87 49.87 64 32.5 64m0-64C14.58 0 0 14.58 0 32.5S14.58 65 32.5 65 65 50.42 65 32.5 50.42 0 32.5 0" fill="#1096D6" fill-rule="evenodd"/>
</svg>
