<svg width="56" height="44" viewBox="0 0 56 44" xmlns="http://www.w3.org/2000/svg">
  <path d="M42.684 33.948c-1.292-.43-2.513-.773-3.59-1.075C35.13 31.76 32 30.88 32 27c0-3.577 1.016-4.686 1.997-5.757C34.982 20.168 36 19.055 36 14c0-7.514-2.99-12-8-12s-8 4.486-8 12c0 5.055 1.02 6.168 2.004 7.243C22.984 22.313 24 23.423 24 27c0 3.88-3.13 4.76-7.093 5.873-1.077.302-2.298.644-3.59 1.075-6.383 2.128-6.365 3.834-6.324 7.956V42h42.014v-.096c.042-4.122.06-5.828-6.323-7.956m8.324 7.977C51.004 42.27 51 42.628 51 43c0 .552-.447 1-1 1H6c-.552 0-1-.448-1-1 0-.372-.003-.73-.007-1.075-.048-4.788.272-7.4 7.69-9.873 1.34-.447 2.585-.796 3.684-1.105C20.553 29.77 22 29.25 22 27c0-2.8-.65-3.51-1.47-4.406C19.343 21.3 18 19.834 18 14 18 1.01 25.655 0 28 0c2.346 0 10 1.01 10 14 0 5.833-1.343 7.3-2.528 8.594C34.65 23.49 34 24.2 34 27c0 2.25 1.448 2.77 5.634 3.947 1.1.31 2.344.658 3.683 1.105 7.42 2.472 7.74 5.085 7.69 9.873m.31-13.873c-3.076-1.026-3.366-1.493-3.366-2.472 0-.815.308-1.296.774-2.025.707-1.106 1.586-2.484 1.586-5.385 0-5.192-2.3-8.17-6.31-8.17-1.45 0-2.69.39-3.69 1.157-.437.337-.52.965-.182 1.403.336.437.964.52 1.402.182.65-.5 1.458-.742 2.47-.742 2.86 0 4.31 2.075 4.31 6.17 0 2.317-.647 3.33-1.272 4.308-.535.837-1.087 1.702-1.087 3.102 0 2.59 1.963 3.444 4.734 4.368 2.027.676 3.04 1.912 3.267 4.052h-1.16c-.552 0-1 .447-1 1 0 .552.448 1 1 1H55c.553 0 1-.448 1-1 0-3.625-1.532-5.9-4.683-6.948M4.21 35c0 .552-.447 1-1 1H1c-.552 0-1-.448-1-1 0-3.625 1.533-5.9 4.684-6.948C7.76 27.026 8.05 26.56 8.05 25.58c0-.815-.307-1.296-.773-2.025C6.57 22.45 5.69 21.07 5.69 18.17 5.69 12.978 7.99 10 12 10c1.45 0 2.69.39 3.69 1.157.438.337.52.965.183 1.403-.337.436-.964.52-1.402.182-.65-.5-1.457-.742-2.47-.742-2.86 0-4.31 2.075-4.31 6.17 0 2.317.647 3.33 1.273 4.308.534.837 1.087 1.702 1.087 3.102 0 2.59-1.962 3.444-4.733 4.368C3.29 30.624 2.277 31.86 2.05 34h1.16c.553 0 1 .447 1 1" fill="#2898D1" fill-rule="evenodd"/>
</svg>
