<svg width="65" height="65" viewBox="0 0 65 65" xmlns="http://www.w3.org/2000/svg">
  <path d="M45.77 32.078c.144.092.23.25.23.422 0 .17-.086.33-.23.422l-22 14c-.083.052-.176.078-.27.078-.083 0-.165-.02-.24-.062-.16-.088-.26-.256-.26-.438v-28c0-.183.1-.35.26-.44.16-.086.355-.08.51.018l22 14zM32.5 64C15.13 64 1 49.87 1 32.5 1 15.13 15.13 1 32.5 1 49.87 1 64 15.13 64 32.5 64 49.87 49.87 64 32.5 64zm0-64C14.58 0 0 14.58 0 32.5S14.58 65 32.5 65 65 50.42 65 32.5 50.42 0 32.5 0z" fill="#1096D6" fill-rule="evenodd"/>
</svg>
