<svg width="13" height="15" viewBox="0 0 13 15" xmlns="http://www.w3.org/2000/svg"><path d="M10 11.5c0 .276-.224.5-.5.5h-6c-.276 0-.5-.224-.5-.5s.224-.5.5-.5h6c.276 0 .5.224.5.5zm0-2c0 .276-.224.5-.5.5h-6c-.276 0-.5-.224-.5-.5s.224-.5.5-.5h6c.276 0 .5.224.5.5zm-7-6c0-.276.224-.5.5-.5h2c.276 0 .5.224.5.5s-.224.5-.5.5h-2c-.276 0-.5-.224-.5-.5zm0 2c0-.276.224-.5.5-.5h2c.276 0 .5.224.5.5s-.224.5-.5.5h-2c-.276 0-.5-.224-.5-.5zm7 2c0 .276-.224.5-.5.5h-6c-.276 0-.5-.224-.5-.5s.224-.5.5-.5h6c.276 0 .5.224.5.5zM1 14V1h7v3.5c0 .276.224.5.5.5H12v9H1zM9 1.707L11.293 4H9V1.707zm3.96 2.6c-.024-.06-.062-.116-.107-.16l-4-4c-.044-.045-.1-.083-.16-.108C8.632.013 8.565 0 8.5 0h-8C.224 0 0 .224 0 .5v14c0 .276.224.5.5.5h12c.276 0 .5-.224.5-.5v-10c0-.066-.014-.132-.04-.192z" fill="#000" fill-rule="evenodd" opacity=".36"/></svg>