<svg width="24" height="19" viewBox="0 0 24 19" xmlns="http://www.w3.org/2000/svg">
  <path d="M14.6 4.45c-.546.084-.922.595-.838 1.14.153 1.01.238 2.36.238 3.8s-.085 2.79-.238 3.8c-.084.546.29 1.055.838 1.138.05.008.102.012.15.012.488 0 .913-.354.99-.85.17-1.12.26-2.54.26-4.1 0-1.56-.09-2.98-.26-4.1-.084-.547-.596-.922-1.14-.84m2.98-2.142c-.516.2-.77.78-.572 1.294.65 1.673.992 3.675.992 5.788 0 2.113-.342 4.115-.992 5.79-.2.514.057 1.093.57 1.293.12.046.243.067.363.067.4 0 .78-.242.933-.638C19.61 14 20 11.748 20 9.39c0-2.358-.39-4.61-1.127-6.512-.2-.514-.783-.77-1.294-.57M22.1.565C21.863.068 21.265-.14 20.767.1c-.497.24-.706.837-.466 1.334C21.412 3.74 22 6.49 22 9.39c0 2.9-.588 5.65-1.7 7.955-.24.497-.032 1.095.466 1.335.14.067.288.1.434.1.372 0 .728-.208.9-.566C23.344 15.64 24 12.59 24 9.39s-.657-6.25-1.9-8.825M11 2.39v14c0 .404-.243.77-.617.924-.124.052-.254.076-.383.076-.26 0-.515-.102-.707-.293L5.586 13.39H2c-1.102 0-2-.897-2-2v-4c0-1.103.898-2 2-2h3.586l3.707-3.707c.287-.287.716-.372 1.09-.217.374.155.617.52.617.924" fill="#1096D6" fill-rule="evenodd"/>
</svg>
