<svg width="11" height="11" viewBox="0 0 11 11" xmlns="http://www.w3.org/2000/svg"><path d="M8.04 6.546c-.164.17-.24.41-.202.642l.478 2.933-2.453-1.357c-.227-.126-.498-.127-.725 0L2.684 10.12l.478-2.932c.038-.233-.038-.473-.203-.642L.92 4.456l2.783-.427c.248-.04.458-.196.564-.423L5.5.98l1.23 2.627c.107.227.318.384.565.422l2.783.425-2.037 2.09zm2.93-2.39c-.065-.2-.236-.343-.443-.375l-3.132-.484L6.005.33V.327c-.187-.395-.823-.396-1.01 0l-1.4 2.976-3.122.477c-.207.033-.377.177-.444.375-.067.2-.018.416.128.567l2.28 2.35-.536 3.29c-.034.212.054.42.23.544.097.07.208.103.32.102.092 0 .185-.022.27-.07l2.785-1.534 2.77 1.534c.188.104.414.092.59-.032.177-.123.265-.332.23-.545l-.53-3.303 2.275-2.335c.146-.15.195-.368.13-.567z" fill="#F0C200" fill-rule="evenodd"/></svg>
