<svg width="33" height="33" viewBox="0 0 33 33" xmlns="http://www.w3.org/2000/svg"><path d="M22.616 11.94c.664-.08 1.297-.26 1.884-.528-.438.675-.995 1.266-1.636 1.742.006.142.008.29.008.435 0 4.448-3.3 9.577-9.34 9.577-1.853 0-3.58-.558-5.032-1.512.257.03.52.047.784.047 1.537 0 2.953-.54 4.076-1.443-1.436-.026-2.648-1-3.066-2.337.2.04.407.06.618.06.3 0 .59-.04.865-.118-1.503-.31-2.634-1.67-2.634-3.3v-.042c.443.25.95.403 1.487.42-.88-.605-1.46-1.635-1.46-2.802 0-.615.16-1.193.444-1.692 1.62 2.038 4.04 3.377 6.767 3.517-.056-.247-.084-.503-.084-.766 0-1.86 1.47-3.367 3.282-3.367.944 0 1.797.41 2.395 1.06.75-.148 1.45-.43 2.086-.813-.246.786-.767 1.445-1.444 1.86M16.5 32C7.94 32 1 25.06 1 16.5 1 7.94 7.94 1 16.5 1 25.06 1 32 7.94 32 16.5 32 25.06 25.06 32 16.5 32m0-32C7.387 0 0 7.387 0 16.5 0 25.612 7.387 33 16.5 33S33 25.612 33 16.5C33 7.387 25.613 0 16.5 0" fill="#41474C" fill-rule="evenodd"/></svg>